<svg enable-background="new 0 0 1024 1024" viewBox="0 0 1024 1024" xmlns="http://www.w3.org/2000/svg"><circle cx="512" cy="512" fill="#8b89cc" r="512"/><path d="m512 676.2s-23.4-2.3-41.7-15-140.4-100-140.4-100v172.8s1 20.1 23.1 20.1h317.9c22.1 0 23.1-20.1 23.1-20.1v-172.9s-122.1 87.3-140.4 100.1c-18.2 12.6-41.6 15-41.6 15zm0-434.2s-150.9-4.9-182.1 162.6v114.1s1.3 12.2 35.6 37 123.2 94.6 146.5 94.6c23.2 0 112.1-69.8 146.5-94.7 34.3-24.8 35.6-37.1 35.6-37.1v-113.9c-31.2-167.5-182.1-162.5-182.1-162.6zm103.4 224.8h-206.7v-62.2c21-83.2 103.3-84.4 103.3-84.4s82.4 1.2 103.4 84.4z" fill="#fff"/></svg>